<svg width="60" height="60" viewBox="0 0 60 60" fill="none" xmlns="http://www.w3.org/2000/svg">
<circle cx="30" cy="30" r="30" fill="#B6BEA9" fill-opacity="0.14"/>
<mask id="mask0_42_978" style="mask-type:alpha" maskUnits="userSpaceOnUse" x="13" y="13" width="35" height="35">
<rect x="13" y="13" width="35" height="35" fill="#D9D9D9"/>
</mask>
<g mask="url(#mask0_42_978)">
<path d="M29.042 37.4736H31.9587V31.6465H37.792V28.733H31.9587V22.9059H29.042V28.733H23.2087V31.6465H29.042V37.4736ZM30.5003 44.7575C28.483 44.7575 26.5871 44.3751 24.8128 43.6103C23.0385 42.8455 21.4951 41.8075 20.1826 40.4964C18.8701 39.1853 17.8311 37.6436 17.0654 35.8712C16.2998 34.0988 15.917 32.205 15.917 30.1898C15.917 28.1746 16.2998 26.2808 17.0654 24.5084C17.8311 22.736 18.8701 21.1942 20.1826 19.8831C21.4951 18.572 23.0385 17.5341 24.8128 16.7693C26.5871 16.0045 28.483 15.6221 30.5003 15.6221C32.5177 15.6221 34.4135 16.0045 36.1878 16.7693C37.9621 17.5341 39.5055 18.572 40.818 19.8831C42.1305 21.1942 43.1696 22.736 43.9352 24.5084C44.7008 26.2808 45.0837 28.1746 45.0837 30.1898C45.0837 32.205 44.7008 34.0988 43.9352 35.8712C43.1696 37.6436 42.1305 39.1853 40.818 40.4964C39.5055 41.8075 37.9621 42.8455 36.1878 43.6103C34.4135 44.3751 32.5177 44.7575 30.5003 44.7575Z" fill="#B6BEA9"/>
</g>
</svg>
