<svg width="30" height="30" viewBox="0 0 30 30" fill="none" xmlns="http://www.w3.org/2000/svg">
<mask id="mask0_42_1135" style="mask-type:alpha" maskUnits="userSpaceOnUse" x="0" y="0" width="30" height="30">
<rect width="30" height="30" fill="#D9D9D9"/>
</mask>
<g mask="url(#mask0_42_1135)">
<path d="M4.99902 23.7481V21.2481H7.49902V12.498C7.49902 10.7689 8.01986 9.23242 9.06152 7.88867C10.1032 6.54492 11.4574 5.66471 13.124 5.24805V4.37305C13.124 3.85221 13.3063 3.40951 13.6709 3.04492C14.0355 2.68034 14.4782 2.49805 14.999 2.49805C15.5199 2.49805 15.9626 2.68034 16.3271 3.04492C16.6917 3.40951 16.874 3.85221 16.874 4.37305V5.24805C18.5407 5.66471 19.8949 6.54492 20.9365 7.88867C21.9782 9.23242 22.499 10.7689 22.499 12.498V21.2481H24.999V23.7481H4.99902ZM14.999 27.4981C14.3115 27.4981 13.723 27.2533 13.2334 26.7637C12.7438 26.2741 12.499 25.6856 12.499 24.9981H17.499C17.499 25.6856 17.2542 26.2741 16.7646 26.7637C16.2751 27.2533 15.6865 27.4981 14.999 27.4981Z" fill="#C4B1AB"/>
</g>
<circle cx="21.9225" cy="6.92248" r="3.46154" fill="#FF2121"/>
</svg>
